REM DIRINDEX 1\6,1\2\7,1\2\8,1\2\9,1\3\10,1\3\11,1\4\12,1\4\13,1\4\14,1\5\15,1\5\16,1\5\17
REM DIRNAME cjc041,folder01,folder02,folder03,folder04,folder05,folder06,folder07,folder08,folder09,folder10,folder11,folder12,folder13,folder14,folder15,folder16
TITLE ""
FILE "3Q_t_0488-0503.mp3" MP3
  TRACK 01 AUDIO
    TITLE "10:cjc041_2583"
    INDEX 01 00:00:00
  TRACK 02 AUDIO
    TITLE "0:"
    INDEX 01 00:00:74
  TRACK 03 AUDIO
    TITLE "11:cjc041_2584"
    INDEX 01 00:01:54
  TRACK 04 AUDIO
    TITLE "0:"
    INDEX 01 00:02:55
  TRACK 05 AUDIO
    TITLE "10:cjc041_2585"
    INDEX 01 00:03:35
  TRACK 06 AUDIO
    TITLE "0:"
    INDEX 01 00:04:54
  TRACK 07 AUDIO
    TITLE "11:cjc041_2586"
    INDEX 01 00:05:28
  TRACK 08 AUDIO
    TITLE "0:"
    INDEX 01 00:06:55
  TRACK 09 AUDIO
    TITLE "10:cjc041_2587"
    INDEX 01 00:07:31
  TRACK 10 AUDIO
    TITLE "0:"
    INDEX 01 00:08:42
  TRACK 11 AUDIO
    TITLE "11:cjc041_2588"
    INDEX 01 00:09:18
  TRACK 12 AUDIO
    TITLE "0:"
    INDEX 01 00:10:33
  TRACK 13 AUDIO
    TITLE "10:cjc041_2589"
    INDEX 01 00:11:11
  TRACK 14 AUDIO
    TITLE "0:"
    INDEX 01 00:12:24
  TRACK 15 AUDIO
    TITLE "11:cjc041_2590"
    INDEX 01 00:13:00
  TRACK 16 AUDIO
    TITLE "0:"
    INDEX 01 00:15:27
  TRACK 17 AUDIO
    TITLE "10:cjc041_2591"
    INDEX 01 00:16:06
  TRACK 18 AUDIO
    TITLE "0:"
    INDEX 01 00:17:25
  TRACK 19 AUDIO
    TITLE "11:cjc041_2592"
    INDEX 01 00:18:03
  TRACK 20 AUDIO
    TITLE "0:"
    INDEX 01 00:19:22
  TRACK 21 AUDIO
    TITLE "10:cjc041_2593"
    INDEX 01 00:20:02
  TRACK 22 AUDIO
    TITLE "0:"
    INDEX 01 00:21:13
  TRACK 23 AUDIO
    TITLE "11:cjc041_2594"
    INDEX 01 00:21:62
  TRACK 24 AUDIO
    TITLE "0:"
    INDEX 01 00:22:66
  TRACK 25 AUDIO
    TITLE "10:cjc041_2595"
    INDEX 01 00:23:50
  TRACK 26 AUDIO
    TITLE "0:"
    INDEX 01 00:24:65
  TRACK 27 AUDIO
    TITLE "11:cjc041_2596"
    INDEX 01 00:25:45
  TRACK 28 AUDIO
    TITLE "0:"
    INDEX 01 00:27:55
  TRACK 29 AUDIO
    TITLE "10:cjc041_2597"
    INDEX 01 00:28:29
  TRACK 30 AUDIO
    TITLE "0:"
    INDEX 01 00:29:50
  TRACK 31 AUDIO
    TITLE "11:cjc041_2598"
    INDEX 01 00:30:20
  TRACK 32 AUDIO
    TITLE "0:"
    INDEX 01 00:31:35
  TRACK 33 AUDIO
    TITLE "10:cjc041_2599"
    INDEX 01 00:32:13
  TRACK 34 AUDIO
    TITLE "0:"
    INDEX 01 00:33:30
  TRACK 35 AUDIO
    TITLE "11:cjc041_2600"
    INDEX 01 00:34:00
  TRACK 36 AUDIO
    TITLE "0:"
    INDEX 01 00:35:08
  TRACK 37 AUDIO
    TITLE "10:cjc041_2601"
    INDEX 01 00:35:61
  TRACK 38 AUDIO
    TITLE "0:"
    INDEX 01 00:36:70
  TRACK 39 AUDIO
    TITLE "11:cjc041_2602"
    INDEX 01 00:37:48
  TRACK 40 AUDIO
    TITLE "0:"
    INDEX 01 00:38:61
  TRACK 41 AUDIO
    TITLE "10:cjc041_2603"
    INDEX 01 00:39:39
  TRACK 42 AUDIO
    TITLE "0:"
    INDEX 01 00:40:46
  TRACK 43 AUDIO
    TITLE "11:cjc041_2604"
    INDEX 01 00:41:24
  TRACK 44 AUDIO
    TITLE "0:"
    INDEX 01 00:43:27
  TRACK 45 AUDIO
    TITLE "10:cjc041_2605"
    INDEX 01 00:44:07
  TRACK 46 AUDIO
    TITLE "0:"
    INDEX 01 00:45:39
  TRACK 47 AUDIO
    TITLE "11:cjc041_2606"
    INDEX 01 00:46:17
  TRACK 48 AUDIO
    TITLE "0:"
    INDEX 01 00:48:08
  TRACK 49 AUDIO
    TITLE "10:cjc041_2607"
    INDEX 01 00:48:57
  TRACK 50 AUDIO
    TITLE "0:"
    INDEX 01 00:50:33
  TRACK 51 AUDIO
    TITLE "11:cjc041_2608"
    INDEX 01 00:51:15
  TRACK 52 AUDIO
    TITLE "0:"
    INDEX 01 00:54:42
  TRACK 53 AUDIO
    TITLE "10:cjc041_2609"
    INDEX 01 00:55:20
  TRACK 54 AUDIO
    TITLE "0:"
    INDEX 01 00:56:35
  TRACK 55 AUDIO
    TITLE "11:cjc041_2610"
    INDEX 01 00:57:13
  TRACK 56 AUDIO
    TITLE "0:"
    INDEX 01 00:59:20
  TRACK 57 AUDIO
    TITLE "10:cjc041_2611"
    INDEX 01 00:59:67
  TRACK 58 AUDIO
    TITLE "0:"
    INDEX 01 01:01:15
  TRACK 59 AUDIO
    TITLE "11:cjc041_2612"
    INDEX 01 01:01:66
  TRACK 60 AUDIO
    TITLE "0:"
    INDEX 01 01:02:54
  TRACK 61 AUDIO
    TITLE "10:cjc041_2613"
    INDEX 01 01:03:35
  TRACK 62 AUDIO
    TITLE "0:"
    INDEX 01 01:04:50
  TRACK 63 AUDIO
    TITLE "11:cjc041_2614"
    INDEX 01 01:05:21
  TRACK 64 AUDIO
    TITLE "0:"
    INDEX 01 01:07:25
